# xmcd CD database file
#
# Track frame offsets:
#	180
#	12576
#	25592
#	36998
#	46830
#	57658
#	68156
#	82785
#	92968
#	104212
#	116023
#	127105
#
# Disc length: 1841 seconds
#
# Revision: 1
# Processed by: cddbd v1.4PL0 Copyright (c) Steve Scherf et al.
# Submitted via: CDex 1.50Beta7
#
DISCID=a7072f0c
DTITLE=Pat Cline - Greatest Hits of Patsy Cline Vol 2
DYEAR=1996
DGENRE=Country
TTITLE0=A Poor Man's Roses(Or a Rich Man's Gold)
TTITLE1=Life's Railway to Heaven
TTITLE2=Crazy Dreams
TTITLE3=I'm Blue Again
TTITLE4=I Cried All the Way to the Altar
TTITLE5=Lovesick Blues
TTITLE6=A Church, A Courtroom, and Then Goodbye
TTITLE7=Three Cigarettes in an Ashstray
TTITLE8=Just out of Reach
TTITLE9=Today, Tomorrow and Forever
TTITLE10=Hidin' Out
TTITLE11=I Can't Forget
EXTD=YEAR: 1996
EXTT0=
EXTT1=
EXTT2=
EXTT3=
EXTT4=
EXTT5=
EXTT6=
EXTT7=
EXTT8=
EXTT9=
EXTT10=
EXTT11=
PLAYORDER=
